<svg width="16" height="16" viewBox="0 0 16 16" fill="none" xmlns="http://www.w3.org/2000/svg">
<rect width="16" height="16" fill="black"/>
<path d="M1.99107 5H3.055L5.03847 11H3.95934L3.45778 9.50423H1.5731L1.07913 11H0L1.99107 5ZM3.26779 8.68451L2.52304 6.20845L1.74789 8.68451H3.26779Z" fill="white"/>
<path d="M6.19265 5L7.53016 7.21408L8.86007 5H10L8.13052 8.04225L9.9392 11H8.79928L7.53016 8.87042L6.25344 11H5.10592L6.9146 8.04225L5.04512 5H6.19265Z" fill="white"/>
<path d="M10 11V5H11.0133V11H10Z" fill="#EC7979"/>
<path d="M16 6.02254H14.3332V11H13.3272V6.02254H11.6604V5H16V6.02254Z" fill="#EC7979"/>
</svg>
