<svg width="92" height="92" viewBox="0 0 92 92" fill="none" xmlns="http://www.w3.org/2000/svg">
<path d="M63.3376 54.2031H28.6789L28.3422 54.2261C27.7209 54.3112 27.1551 54.6278 26.7593 55.112C26.3634 55.5961 26.1671 56.2118 26.2098 56.8345C26.2526 57.4571 26.5313 58.0405 26.9896 58.4666C27.4479 58.8927 28.0517 59.1298 28.6789 59.13H63.3376L63.6743 59.107C64.2956 59.0219 64.8614 58.7053 65.2572 58.2211C65.6531 57.737 65.8494 57.1213 65.8067 56.4986C65.7639 55.876 65.4852 55.2926 65.0269 54.8665C64.5686 54.4404 63.9648 54.2033 63.3376 54.2031Z" fill="#EC7979"/>
<path d="M63.196 43.6693C62.577 43.0533 61.7374 42.7072 60.862 42.7072C59.9865 42.7072 59.147 43.0533 58.5279 43.6693C57.9089 44.2852 57.5611 45.1207 57.5611 45.9918C57.5611 46.8629 57.9089 47.6983 58.5279 48.3143C59.147 48.9303 59.9865 49.2763 60.862 49.2763C61.7374 49.2763 62.577 48.9303 63.196 48.3143C63.815 47.6983 64.1628 46.8629 64.1628 45.9918C64.1628 45.1207 63.815 44.2852 63.196 43.6693Z" fill="#EC7979"/>
<path d="M43.4076 43.6693C42.7885 43.0533 41.949 42.7072 41.0735 42.7072C40.1981 42.7072 39.3585 43.0533 38.7395 43.6693C38.1205 44.2852 37.7727 45.1207 37.7727 45.9918C37.7727 46.8629 38.1205 47.6983 38.7395 48.3143C39.3585 48.9303 40.1981 49.2763 41.0735 49.2763C41.949 49.2763 42.7885 48.9303 43.4076 48.3143C44.0266 47.6983 44.3743 46.8629 44.3743 45.9918C44.3743 45.1207 44.0266 44.2852 43.4076 43.6693Z" fill="#EC7979"/>
<path d="M33.5051 43.6693C32.8861 43.0533 32.0465 42.7072 31.171 42.7072C30.2956 42.7072 29.456 43.0533 28.837 43.6693C28.218 44.2852 27.8702 45.1207 27.8702 45.9918C27.8702 46.8629 28.218 47.6983 28.837 48.3143C29.456 48.9303 30.2956 49.2763 31.171 49.2763C32.0465 49.2763 32.8861 48.9303 33.5051 48.3143C34.1241 47.6983 34.4719 46.8629 34.4719 45.9918C34.4719 45.1207 34.1241 44.2852 33.5051 43.6693Z" fill="#EC7979"/>
<path d="M53.31 43.6693C52.691 43.0533 51.8514 42.7072 50.976 42.7072C50.1006 42.7072 49.261 43.0533 48.642 43.6693C48.0229 44.2852 47.6752 45.1207 47.6752 45.9918C47.6752 46.8629 48.0229 47.6983 48.642 48.3143C49.261 48.9303 50.1006 49.2763 50.976 49.2763C51.8514 49.2763 52.691 48.9303 53.31 48.3143C53.9291 47.6983 54.2768 46.8629 54.2768 45.9918C54.2768 45.1207 53.9291 44.2852 53.31 43.6693Z" fill="#EC7979"/>
<path d="M28.5373 33.8156C27.9183 33.1997 27.0787 32.8536 26.2033 32.8536C25.3279 32.8536 24.4883 33.1997 23.8693 33.8156C23.2502 34.4316 22.9025 35.2671 22.9025 36.1382C22.9025 37.0093 23.2502 37.8447 23.8693 38.4607C24.4883 39.0767 25.3279 39.4227 26.2033 39.4227C27.0787 39.4227 27.9183 39.0767 28.5373 38.4607C29.1564 37.8447 29.5041 37.0093 29.5041 36.1382C29.5041 35.2671 29.1564 34.4316 28.5373 33.8156Z" fill="#EC7979"/>
<path d="M38.4233 33.8156C37.8043 33.1997 36.9647 32.8536 36.0893 32.8536C35.2138 32.8536 34.3743 33.1997 33.7552 33.8156C33.1362 34.4316 32.7884 35.2671 32.7884 36.1382C32.7884 37.0093 33.1362 37.8447 33.7552 38.4607C34.3743 39.0767 35.2138 39.4227 36.0893 39.4227C36.9647 39.4227 37.8043 39.0767 38.4233 38.4607C39.0423 37.8447 39.3901 37.0093 39.3901 36.1382C39.3901 35.2671 39.0423 34.4316 38.4233 33.8156Z" fill="#EC7979"/>
<path d="M48.3258 33.8156C47.7068 33.1997 46.8672 32.8536 45.9917 32.8536C45.1163 32.8536 44.2767 33.1997 43.6577 33.8156C43.0387 34.4316 42.6909 35.2671 42.6909 36.1382C42.6909 37.0093 43.0387 37.8447 43.6577 38.4607C44.2767 39.0767 45.1163 39.4227 45.9917 39.4227C46.8672 39.4227 47.7068 39.0767 48.3258 38.4607C48.9448 37.8447 49.2926 37.0093 49.2926 36.1382C49.2926 35.2671 48.9448 34.4316 48.3258 33.8156Z" fill="#EC7979"/>
<path d="M58.2283 33.8156C57.6092 33.1997 56.7697 32.8536 55.8942 32.8536C55.0188 32.8536 54.1792 33.1997 53.5602 33.8156C52.9412 34.4316 52.5934 35.2671 52.5934 36.1382C52.5934 37.0093 52.9412 37.8447 53.5602 38.4607C54.1792 39.0767 55.0188 39.4227 55.8942 39.4227C56.7697 39.4227 57.6092 39.0767 58.2283 38.4607C58.8473 37.8447 59.195 37.0093 59.195 36.1382C59.195 35.2671 58.8473 34.4316 58.2283 33.8156Z" fill="#EC7979"/>
<path d="M68.1307 33.8156C67.5117 33.1997 66.6721 32.8536 65.7967 32.8536C64.9213 32.8536 64.0817 33.1997 63.4627 33.8156C62.8436 34.4316 62.4959 35.2671 62.4959 36.1382C62.4959 37.0093 62.8436 37.8447 63.4627 38.4607C64.0817 39.0767 64.9213 39.4227 65.7967 39.4227C66.6721 39.4227 67.5117 39.0767 68.1307 38.4607C68.7498 37.8447 69.0975 37.0093 69.0975 36.1382C69.0975 35.2671 68.7498 34.4316 68.1307 33.8156Z" fill="#EC7979"/>
<path fill-rule="evenodd" clip-rule="evenodd" d="M76.8247 25.1645C75.4319 23.7786 73.5429 23 71.5731 23H20.4269C18.4571 23 16.5681 23.7786 15.1753 25.1645C13.7825 26.5505 13 28.4302 13 30.3902V61.6098C13 62.5803 13.1921 63.5413 13.5653 64.4379C13.9386 65.3345 14.4856 66.1492 15.1753 66.8355C15.8649 67.5217 16.6837 68.0661 17.5847 68.4375C18.4858 68.8088 19.4515 69 20.4269 69H71.5731C73.5429 69 75.4319 68.2214 76.8247 66.8355C78.2175 65.4495 79 63.5698 79 61.6098V30.3902C79 28.4302 78.2175 26.5505 76.8247 25.1645ZM18.6763 28.6483C19.1406 28.1863 19.7703 27.9268 20.4269 27.9268H71.5731C72.2297 27.9268 72.8594 28.1863 73.3237 28.6483C73.7879 29.1103 74.0488 29.7369 74.0488 30.3902V61.6098C74.0488 62.2631 73.7879 62.8897 73.3237 63.3517C72.8594 63.8137 72.2297 64.0732 71.5731 64.0732H20.4269C19.0603 64.0732 17.9512 62.9696 17.9512 61.6098V30.3902C17.9512 29.7369 18.2121 29.1103 18.6763 28.6483Z" fill="#EC7979"/>
<path fill-rule="evenodd" clip-rule="evenodd" d="M92 46C92 71.4051 71.4051 92 46 92C20.5949 92 0 71.4051 0 46C0 20.5949 20.5949 0 46 0C71.4051 0 92 20.5949 92 46ZM91 46C91 70.8528 70.8528 91 46 91C21.1472 91 1 70.8528 1 46C1 21.1472 21.1472 1 46 1C70.8528 1 91 21.1472 91 46Z" fill="#EC7979"/>
</svg>
