<svg width="92" height="92" viewBox="0 0 92 92" fill="none" xmlns="http://www.w3.org/2000/svg">
<path d="M49.4167 13.3549C49.4167 11.4679 47.887 9.93819 46 9.93819C44.113 9.93819 42.5834 11.4679 42.5834 13.3549V16.9821C42.5834 18.8691 44.113 20.3988 46 20.3988C47.887 20.3988 49.4167 18.8691 49.4167 16.9821V13.3549Z" fill="#EC7979"/>
<path d="M25.3322 20.5003C23.9979 19.166 21.8346 19.166 20.5003 20.5003C19.166 21.8346 19.166 23.9979 20.5003 25.3322L23.0648 27.8967C24.3991 29.231 26.5624 29.231 27.8967 27.8967C29.231 26.5624 29.231 24.3991 27.8967 23.0648L25.3322 20.5003Z" fill="#EC7979"/>
<path d="M71.4997 25.3322C72.834 23.9979 72.834 21.8346 71.4997 20.5003C70.1654 19.166 68.0021 19.166 66.6678 20.5003L64.1034 23.0648C62.7691 24.3991 62.7691 26.5624 64.1034 27.8967C65.4377 29.231 67.601 29.231 68.9353 27.8967L71.4997 25.3322Z" fill="#EC7979"/>
<path fill-rule="evenodd" clip-rule="evenodd" d="M46 24.4505C41.7375 24.4505 37.5707 25.7144 34.0265 28.0825C30.4823 30.4505 27.7198 33.8162 26.0883 37.7542C24.4569 41.6921 24.0297 46.0254 24.8609 50.2061C25.692 54.3868 27.7442 58.2271 30.7578 61.2416L32.7459 63.226C33.4233 63.9035 33.9797 64.6812 34.4003 65.5243C34.4295 65.5901 34.4608 65.6547 34.494 65.7181C35.0383 66.8795 35.3289 68.1575 35.3289 69.4646V71.3907C35.3289 74.2209 36.4532 76.9351 38.4544 78.9363C40.4556 80.9376 43.1699 82.0619 46 82.0619C48.8302 82.0619 51.5444 80.9376 53.5457 78.9363C55.5469 76.9351 56.6712 74.2209 56.6712 71.3907V69.4646C56.671 68.3061 56.8991 67.1584 57.3423 66.088C57.7855 65.0178 58.4351 64.0453 59.2541 63.2261L61.2422 61.2416C64.2559 58.2271 66.308 54.3868 67.1392 50.2061C67.9703 46.0254 67.5432 41.6921 65.9117 37.7542C64.2803 33.8162 61.5178 30.4505 57.9736 28.0825C54.4293 25.7144 50.2625 24.4505 46 24.4505ZM37.8227 33.7643C40.2432 32.1471 43.0889 31.2839 46 31.2839C48.9111 31.2839 51.7568 32.1471 54.1773 33.7643C56.5979 35.3815 58.4845 37.6802 59.5987 40.3696C60.7129 43.059 61.0046 46.0184 60.437 48.8736C59.8695 51.7279 58.4688 54.3499 56.4117 56.4083L56.4097 56.4103L54.422 58.3943C53.7087 59.1078 53.0678 59.8867 52.507 60.7196H39.4928C38.9346 59.8902 38.2944 59.1108 37.5778 58.3941L35.5904 56.4103L35.5891 56.4091C33.5316 54.3506 32.1306 51.7282 31.563 48.8736C30.9954 46.0184 31.2871 43.059 32.4013 40.3696C33.5155 37.6802 35.4022 35.3815 37.8227 33.7643ZM42.045 67.5529H49.9548C49.877 68.1859 49.8378 68.8243 49.8378 69.4646V71.3907C49.8378 72.4086 49.4335 73.3847 48.7138 74.1044C47.994 74.8242 47.0179 75.2285 46 75.2285C44.9822 75.2285 44.006 74.8242 43.2863 74.1044C42.5665 73.3847 42.1622 72.4086 42.1622 71.3907V69.4646C42.1622 68.8223 42.1227 68.1839 42.045 67.5529Z" fill="#EC7979"/>
<path d="M13.3549 42.5834C11.4679 42.5834 9.93819 44.113 9.93819 46C9.93819 47.887 11.4679 49.4167 13.3549 49.4167H16.9821C18.8691 49.4167 20.3988 47.887 20.3988 46C20.3988 44.113 18.8691 42.5834 16.9821 42.5834H13.3549Z" fill="#EC7979"/>
<path d="M75.0179 42.5834C73.131 42.5834 71.6013 44.113 71.6013 46C71.6013 47.887 73.131 49.4167 75.0179 49.4167H78.6452C80.5322 49.4167 82.0619 47.887 82.0619 46C82.0619 44.113 80.5322 42.5834 78.6452 42.5834H75.0179Z" fill="#EC7979"/>
<path fill-rule="evenodd" clip-rule="evenodd" d="M92 46C92 71.4051 71.4051 92 46 92C20.5949 92 0 71.4051 0 46C0 20.5949 20.5949 0 46 0C71.4051 0 92 20.5949 92 46ZM91 46C91 70.8528 70.8528 91 46 91C21.1472 91 1 70.8528 1 46C1 21.1472 21.1472 1 46 1C70.8528 1 91 21.1472 91 46Z" fill="#EC7979"/>
</svg>
