<svg width="92" height="92" viewBox="0 0 92 92" fill="none" xmlns="http://www.w3.org/2000/svg">
<path fill-rule="evenodd" clip-rule="evenodd" d="M35.6123 77.7927C35.8637 78.2494 36.2572 78.6078 36.7308 78.8114C37.0178 78.9302 37.3237 78.9941 37.6334 79C37.9967 78.9856 38.3515 78.8841 38.6692 78.7039C38.9868 78.5238 39.2583 78.2699 39.4616 77.9629L69.5466 37.892C69.7898 37.557 69.9414 37.1624 69.9861 36.7484C70.0308 36.3343 69.967 35.9156 69.8012 35.5348C69.6104 35.1381 69.3139 34.804 68.9456 34.5706C68.5774 34.3373 68.1521 34.214 67.7184 34.2149H56.7258L60.7294 15.8765C60.806 15.5287 60.8042 15.1676 60.724 14.8206C60.6439 14.4735 60.4875 14.1495 60.2666 13.873C60.0488 13.5995 59.7735 13.3792 59.4612 13.2283C59.1488 13.0774 58.8072 12.9996 58.4615 13.0008H35.3192C34.7874 12.9864 34.2669 13.1589 33.8454 13.4895C33.4239 13.8201 33.1271 14.2885 33.0049 14.8158L26.0622 45.4583C25.9806 45.8096 25.9793 46.1754 26.0584 46.5274C26.1375 46.8793 26.2949 47.2081 26.5186 47.4882C26.7422 47.7684 27.026 47.9925 27.3482 48.1432C27.6703 48.2939 28.0221 48.3672 28.3765 48.3575H39.5542L35.3423 76.2893C35.2659 76.8071 35.3608 77.336 35.6123 77.7927ZM55.5687 17.7151L50.9402 38.9291H63.0899L41.2899 67.8744L44.9695 43.6433H31.2924L37.1705 17.7151H55.5687Z" fill="#EC7979"/>
<path fill-rule="evenodd" clip-rule="evenodd" d="M92 46C92 71.4051 71.4051 92 46 92C20.5949 92 0 71.4051 0 46C0 20.5949 20.5949 0 46 0C71.4051 0 92 20.5949 92 46ZM91 46C91 70.8528 70.8528 91 46 91C21.1472 91 1 70.8528 1 46C1 21.1472 21.1472 1 46 1C70.8528 1 91 21.1472 91 46Z" fill="#EC7979"/>
</svg>
